STARTFONT 2.1
FONT -thai-dbthaitext-bold-r-normal--39-280-100-100-p-117-tis620-0
SIZE 28 100 100
FONTBOUNDINGBOX 52 45 -13 -16
STARTPROPERTIES 25
FOUNDRY "thai"
FAMILY_NAME "dbthaitext"
WEIGHT_NAME "bold"
SLANT "r"
SETWIDTH_NAME "normal"
ADD_STYLE_NAME ""
PIXEL_SIZE 39
POINT_SIZE 280
RESOLUTION_X 100
RESOLUTION_Y 100
SPACING "p"
AVERAGE_WIDTH 117
CHARSET_REGISTRY "tis620"
CHARSET_ENCODING "0"
FONT "-thai-dbthaitext-bold-r-normal--39-280-100-100-p-117-tis620-0"
COPYRIGHT "Typeface (c) The Monotype Corporation plc. Data (c) The Monotype Corporation plc/Type Solutions Inc. 1990-1992. All Rights Reserved"
RAW_PIXELSIZE 1000
RAW_POINTSIZE 723
RAW_ASCENT 738
RAW_DESCENT 408
RAW_AVERAGE_WIDTH 3023
FACE_NAME "DBThaiTextBoldne5"
DEFAULT_CHAR 0
FONT_ASCENT 29
FONT_DESCENT 16
ENDPROPERTIES
CHARS 190
STARTCHAR space
ENCODING 32
SWIDTH 257 0
DWIDTH 10 0
BBX 0 0 0 0
BITMAP
ENDCHAR
STARTCHAR exclam
ENCODING 33
SWIDTH 180 0
DWIDTH 7 0
BBX 3 16 3 0
BITMAP
e0
e0
e0
e0
e0
e0
e0
e0
c0
40
40
00
00
e0
e0
e0
ENDCHAR
STARTCHAR quotedbl
ENCODING 34
SWIDTH 257 0
DWIDTH 10 0
BBX 7 6 2 10
BITMAP
c6
c6
c6
c6
42
42
ENDCHAR
STARTCHAR numbersign
ENCODING 35
SWIDTH 308 0
DWIDTH 12 0
BBX 12 15 0 0
BITMAP
0c60
0ce0
0ce0
0cc0
7ff0
7ff0
19c0
19c0
19c0
1980
ffe0
ffe0
3380
3300
7300
ENDCHAR
STARTCHAR dollar
ENCODING 36
SWIDTH 308 0
DWIDTH 12 0
BBX 11 20 1 -3
BITMAP
0c00
1e00
7f80
ffc0
edc0
edc0
ec00
fc00
7e00
3f80
0fc0
0dc0
cce0
ecc0
edc0
ffc0
7f80
0c00
0c00
0c00
ENDCHAR
STARTCHAR percent
ENCODING 37
SWIDTH 514 0
DWIDTH 20 0
BBX 18 16 1 0
BITMAP
3c0c00
7e0800
e71800
c31000
c33000
e72000
7e6000
3c4000
00cf00
009f80
01b9c0
0130c0
0330c0
0239c0
061f80
040f00
ENDCHAR
STARTCHAR ampersand
ENCODING 38
SWIDTH 411 0
DWIDTH 16 0
BBX 14 16 1 0
BITMAP
0f00
1f80
39c0
39c0
39c0
3f80
1f00
1e00
3f38
77b8
e3f0
e1f0
e0e0
f1f0
7ff8
3f3c
ENDCHAR
STARTCHAR apostrophe
ENCODING 39
SWIDTH 128 0
DWIDTH 5 0
BBX 2 6 2 10
BITMAP
c0
c0
c0
c0
40
40
ENDCHAR
STARTCHAR parenleft
ENCODING 40
SWIDTH 180 0
DWIDTH 7 0
BBX 6 20 1 -4
BITMAP
1c
18
38
30
70
70
e0
e0
e0
e0
e0
e0
e0
e0
70
70
70
38
38
18
ENDCHAR
STARTCHAR parenright
ENCODING 41
SWIDTH 180 0
DWIDTH 7 0
BBX 5 20 1 -4
BITMAP
c0
e0
60
60
30
30
38
18
18
18
18
18
18
38
30
30
70
60
60
c0
ENDCHAR
STARTCHAR asterisk
ENCODING 42
SWIDTH 231 0
DWIDTH 9 0
BBX 7 8 1 8
BITMAP
30
30
fe
fc
38
7c
cc
44
ENDCHAR
STARTCHAR plus
ENCODING 43
SWIDTH 334 0
DWIDTH 13 0
BBX 11 10 1 0
BITMAP
0c00
0c00
0c00
0c00
ffe0
ffe0
0c00
0c00
0c00
0c00
ENDCHAR
STARTCHAR comma
ENCODING 44
SWIDTH 205 0
DWIDTH 8 0
BBX 4 6 2 -2
BITMAP
60
f0
f0
70
20
c0
ENDCHAR
STARTCHAR minus
ENCODING 45
SWIDTH 180 0
DWIDTH 7 0
BBX 6 3 1 5
BITMAP
fc
fc
fc
ENDCHAR
STARTCHAR period
ENCODING 46
SWIDTH 154 0
DWIDTH 6 0
BBX 2 3 2 0
BITMAP
c0
c0
c0
ENDCHAR
STARTCHAR slash
ENCODING 47
SWIDTH 154 0
DWIDTH 6 0
BBX 6 16 0 0
BITMAP
04
0c
08
08
18
10
10
30
30
20
20
60
40
40
c0
c0
ENDCHAR
STARTCHAR 0
ENCODING 48
SWIDTH 308 0
DWIDTH 12 0
BBX 10 16 1 0
BITMAP
1e00
3f00
7f80
6180
e1c0
c0c0
c0c0
c0c0
c0c0
c0c0
c0c0
e1c0
6180
7f80
3f00
1e00
ENDCHAR
STARTCHAR 1
ENCODING 49
SWIDTH 308 0
DWIDTH 12 0
BBX 6 16 2 0
BITMAP
04
0c
1c
fc
fc
0c
0c
0c
0c
0c
0c
0c
0c
0c
0c
0c
ENDCHAR
STARTCHAR 2
ENCODING 50
SWIDTH 308 0
DWIDTH 12 0
BBX 11 16 0 0
BITMAP
1f00
3fc0
7fc0
71e0
e1e0
e1e0
01e0
01c0
07c0
0f00
1e00
3c00
7000
ffe0
ffe0
ffe0
ENDCHAR
STARTCHAR 3
ENCODING 51
SWIDTH 308 0
DWIDTH 12 0
BBX 11 16 1 0
BITMAP
1f00
7f80
7fc0
f1c0
e1c0
01c0
03c0
0f80
0fc0
03e0
01e0
e0e0
e1e0
f1e0
7fc0
3f80
ENDCHAR
STARTCHAR 4
ENCODING 52
SWIDTH 308 0
DWIDTH 12 0
BBX 11 16 1 0
BITMAP
0700
0700
0f00
1f00
1b00
3b00
3300
6300
e300
c300
ffe0
ffe0
0300
0300
0300
0300
ENDCHAR
STARTCHAR 5
ENCODING 53
SWIDTH 308 0
DWIDTH 12 0
BBX 10 15 1 0
BITMAP
7f80
7f80
6000
6000
6400
ff00
ff80
e3c0
01c0
00c0
00c0
e1c0
e380
ff80
3e00
ENDCHAR
STARTCHAR 6
ENCODING 54
SWIDTH 308 0
DWIDTH 12 0
BBX 10 16 1 0
BITMAP
1f00
3f80
7380
e1c0
e000
e000
ff00
ff80
f3c0
e1c0
e0c0
e0c0
e1c0
f380
7f80
3f00
ENDCHAR
STARTCHAR 7
ENCODING 55
SWIDTH 308 0
DWIDTH 12 0
BBX 11 15 1 0
BITMAP
ffe0
ffe0
01c0
01c0
0380
0700
0700
0e00
0e00
1c00
1c00
1c00
1c00
3c00
3800
ENDCHAR
STARTCHAR 8
ENCODING 56
SWIDTH 308 0
DWIDTH 12 0
BBX 11 16 1 0
BITMAP
1f00
3f80
73c0
61c0
61c0
61c0
7380
3f00
7fc0
e1c0
c1c0
c1e0
e1c0
f3c0
7f80
1e00
ENDCHAR
STARTCHAR 9
ENCODING 57
SWIDTH 308 0
DWIDTH 12 0
BBX 10 16 1 0
BITMAP
1e00
3f80
7f80
e1c0
c1c0
c1c0
c1c0
e1c0
7fc0
7fc0
3dc0
01c0
e1c0
6380
7f80
1e00
ENDCHAR
STARTCHAR colon
ENCODING 58
SWIDTH 180 0
DWIDTH 7 0
BBX 2 12 3 0
BITMAP
c0
c0
40
00
00
00
00
00
00
c0
c0
c0
ENDCHAR
STARTCHAR semicolon
ENCODING 59
SWIDTH 205 0
DWIDTH 8 0
BBX 4 14 2 -2
BITMAP
60
f0
f0
60
00
00
00
00
60
f0
f0
70
20
c0
ENDCHAR
STARTCHAR less
ENCODING 60
SWIDTH 334 0
DWIDTH 13 0
BBX 11 10 1 0
BITMAP
00e0
03e0
1fe0
ff00
f800
fc00
7f80
0fe0
01e0
0060
ENDCHAR
STARTCHAR equal
ENCODING 61
SWIDTH 334 0
DWIDTH 13 0
BBX 11 8 1 1
BITMAP
ffe0
ffe0
0000
0000
0000
0000
ffe0
ffe0
ENDCHAR
STARTCHAR greater
ENCODING 62
SWIDTH 334 0
DWIDTH 13 0
BBX 11 10 1 0
BITMAP
e000
f800
ff00
1fe0
03e0
07e0
3fc0
fe00
f000
8000
ENDCHAR
STARTCHAR question
ENCODING 63
SWIDTH 334 0
DWIDTH 13 0
BBX 11 16 1 0
BITMAP
3f80
3fc0
7be0
70e0
f0e0
00e0
01e0
03c0
0780
0700
0e00
0e00
0000
0e00
0e00
0e00
ENDCHAR
STARTCHAR at
ENCODING 64
SWIDTH 540 0
DWIDTH 21 0
BBX 20 20 1 -3
BITMAP
01fc00
03ff00
0f0780
1c01c0
1800e0
300060
60f660
619e30
c30c30
c60c30
c60c30
c60c60
c61860
c73cc0
63ef80
61c700
300000
1c0400
0ffe00
03f800
ENDCHAR
STARTCHAR A
ENCODING 65
SWIDTH 411 0
DWIDTH 16 0
BBX 15 16 1 0
BITMAP
07c0
07c0
07c0
0fe0
0ee0
0ee0
1e70
1c70
1c70
3cf8
3ff8
3ff8
701c
701c
f01c
f01e
ENDCHAR
STARTCHAR B
ENCODING 66
SWIDTH 411 0
DWIDTH 16 0
BBX 13 16 2 0
BITMAP
ffc0
ffe0
e0f0
e070
e070
e070
e0f0
ffe0
ffe0
e070
e078
e078
e070
e0f0
ffe0
ffc0
ENDCHAR
STARTCHAR C
ENCODING 67
SWIDTH 411 0
DWIDTH 16 0
BBX 14 16 1 0
BITMAP
0fe0
3ff0
3ef8
783c
701c
e000
e000
e000
e000
e000
e01c
f01c
703c
7cf8
3ff0
0fc0
ENDCHAR
STARTCHAR D
ENCODING 68
SWIDTH 411 0
DWIDTH 16 0
BBX 13 16 2 0
BITMAP
ff80
ffe0
e1f0
e0f0
e078
e038
e038
e038
e038
e038
e078
e070
e0f0
e1e0
ffc0
ff80
ENDCHAR
STARTCHAR E
ENCODING 69
SWIDTH 385 0
DWIDTH 15 0
BBX 12 16 2 0
BITMAP
ffe0
ffe0
e000
e000
e000
e000
e000
ffe0
ffe0
e000
e000
e000
e000
e000
fff0
fff0
ENDCHAR
STARTCHAR F
ENCODING 70
SWIDTH 334 0
DWIDTH 13 0
BBX 11 16 2 0
BITMAP
ffe0
ffe0
e000
e000
e000
e000
e000
ffc0
ffc0
e000
e000
e000
e000
e000
e000
e000
ENDCHAR
STARTCHAR G
ENCODING 71
SWIDTH 437 0
DWIDTH 17 0
BBX 13 16 2 0
BITMAP
0f80
3fe0
38f0
7078
6038
e000
c000
c000
c1f8
c1f8
c038
6038
7038
38f8
3fd8
0f98
ENDCHAR
STARTCHAR H
ENCODING 72
SWIDTH 411 0
DWIDTH 16 0
BBX 12 16 2 0
BITMAP
e070
e070
e070
e070
e070
e070
fff0
fff0
e070
e070
e070
e070
e070
e070
e070
e070
ENDCHAR
STARTCHAR I
ENCODING 73
SWIDTH 154 0
DWIDTH 6 0
BBX 3 16 2 0
BITMAP
e0
e0
e0
e0
e0
e0
e0
e0
e0
e0
e0
e0
e0
e0
e0
e0
ENDCHAR
STARTCHAR J
ENCODING 74
SWIDTH 308 0
DWIDTH 12 0
BBX 10 16 1 0
BITMAP
01c0
01c0
01c0
01c0
01c0
01c0
01c0
01c0
01c0
01c0
e1c0
e1c0
e1c0
f3c0
7f80
3f00
ENDCHAR
STARTCHAR K
ENCODING 75
SWIDTH 411 0
DWIDTH 16 0
BBX 14 16 2 0
BITMAP
e078
e0f0
e1e0
e3c0
e780
e700
ee00
fe00
ff00
f780
e3c0
e3c0
e1e0
e0f0
e078
e078
ENDCHAR
STARTCHAR L
ENCODING 76
SWIDTH 334 0
DWIDTH 13 0
BBX 11 16 2 0
BITMAP
e000
e000
e000
e000
e000
e000
e000
e000
e000
e000
e000
e000
e000
e000
ffe0
ffe0
ENDCHAR
STARTCHAR M
ENCODING 77
SWIDTH 462 0
DWIDTH 18 0
BBX 15 16 2 0
BITMAP
f03e
f83e
f83e
f87e
f86e
ec6e
ec6e
ecee
ecee
eece
e6ce
e7ce
e7ce
e78e
e78e
e38e
ENDCHAR
STARTCHAR N
ENCODING 78
SWIDTH 411 0
DWIDTH 16 0
BBX 12 16 2 0
BITMAP
e070
f070
f070
f870
f870
fc70
ee70
ee70
e770
e370
e3f0
e1f0
e1f0
e0f0
e0f0
e070
ENDCHAR
STARTCHAR O
ENCODING 79
SWIDTH 437 0
DWIDTH 17 0
BBX 15 16 1 0
BITMAP
07e0
1ff0
3ff8
783c
701c
e00e
e00e
c006
c006
e00e
e00e
701c
781c
3ff8
1ff0
07e0
ENDCHAR
STARTCHAR P
ENCODING 80
SWIDTH 385 0
DWIDTH 15 0
BBX 12 16 2 0
BITMAP
ffc0
ffe0
e0e0
e0f0
e070
e070
e0f0
e0e0
ffe0
ff80
e000
e000
e000
e000
e000
e000
ENDCHAR
STARTCHAR Q
ENCODING 81
SWIDTH 437 0
DWIDTH 17 0
BBX 14 17 2 -1
BITMAP
0fc0
1fe0
3ff0
7078
6038
e01c
c01c
c00c
c00c
c00c
e09c
61fc
70fc
3ffc
1ffc
0fcc
0004
ENDCHAR
STARTCHAR R
ENCODING 82
SWIDTH 411 0
DWIDTH 16 0
BBX 13 16 2 0
BITMAP
ffc0
fff0
e070
e078
e038
e078
e070
ffe0
ffc0
e0f0
e070
e070
e070
e070
e070
e078
ENDCHAR
STARTCHAR S
ENCODING 83
SWIDTH 385 0
DWIDTH 15 0
BBX 13 16 1 0
BITMAP
1f80
3fe0
70f0
e070
e030
f000
7e00
3fe0
1ff0
00f8
0038
e038
e038
7070
3ff0
0fc0
ENDCHAR
STARTCHAR T
ENCODING 84
SWIDTH 334 0
DWIDTH 13 0
BBX 13 16 0 0
BITMAP
fff8
fff8
0700
0700
0700
0700
0700
0700
0700
0700
0700
0700
0700
0700
0700
0700
ENDCHAR
STARTCHAR U
ENCODING 85
SWIDTH 411 0
DWIDTH 16 0
BBX 12 16 2 0
BITMAP
e070
e070
e070
e070
e070
e070
e070
e070
e070
e070
e070
e070
e070
7fe0
3fc0
1f80
ENDCHAR
STARTCHAR V
ENCODING 86
SWIDTH 385 0
DWIDTH 15 0
BBX 14 16 0 0
BITMAP
f01c
703c
7038
7838
3878
3870
3870
1ce0
1ce0
1ce0
0dc0
0fc0
0fc0
0780
0780
0780
ENDCHAR
STARTCHAR W
ENCODING 87
SWIDTH 540 0
DWIDTH 21 0
BBX 20 16 0 0
BITMAP
e0f0f0
f0f0f0
70f0e0
70f0e0
70f8e0
39f8c0
3999c0
3999c0
399dc0
1b9d80
1f9d80
1f0f80
0f0f80
0f0f00
0f0f00
0f0700
ENDCHAR
STARTCHAR X
ENCODING 88
SWIDTH 385 0
DWIDTH 15 0
BBX 14 16 0 0
BITMAP
783c
7878
3c70
3cf0
1fe0
0fc0
0fc0
0780
0780
0fc0
1fe0
1ee0
3cf0
7870
7878
f03c
ENDCHAR
STARTCHAR Y
ENCODING 89
SWIDTH 385 0
DWIDTH 15 0
BBX 13 16 1 0
BITMAP
f078
f078
7870
78f0
38e0
1dc0
1dc0
0f80
0f80
0700
0700
0700
0700
0700
0700
0700
ENDCHAR
STARTCHAR Z
ENCODING 90
SWIDTH 334 0
DWIDTH 13 0
BBX 12 16 1 0
BITMAP
fff0
fff0
03f0
00e0
01c0
03c0
0780
0700
0f00
1e00
1c00
3c00
7800
f000
fff0
fff0
ENDCHAR
STARTCHAR bracketleft
ENCODING 91
SWIDTH 180 0
DWIDTH 7 0
BBX 5 20 2 -4
BITMAP
f8
f8
c0
c0
c0
c0
c0
c0
c0
c0
c0
c0
c0
c0
c0
c0
c0
c0
f8
f8
ENDCHAR
STARTCHAR backslash
ENCODING 92
SWIDTH 154 0
DWIDTH 6 0
BBX 7 16 0 0
BITMAP
c0
c0
60
60
60
30
30
30
18
18
18
0c
0c
0c
06
06
ENDCHAR
STARTCHAR bracketright
ENCODING 93
SWIDTH 180 0
DWIDTH 7 0
BBX 5 20 0 -4
BITMAP
f8
f8
18
18
18
18
18
18
18
18
18
18
18
18
18
18
18
18
f8
f8
ENDCHAR
STARTCHAR asciicircum
ENCODING 94
SWIDTH 334 0
DWIDTH 13 0
BBX 10 9 1 6
BITMAP
1e00
1e00
1e00
3f00
3300
7380
6180
6180
e1c0
ENDCHAR
STARTCHAR underscore
ENCODING 95
SWIDTH 308 0
DWIDTH 12 0
BBX 13 2 0 -5
BITMAP
fff8
fff8
ENDCHAR
STARTCHAR grave
ENCODING 96
SWIDTH 180 0
DWIDTH 7 0
BBX 7 7 0 3
BITMAP
38
7c
fe
fe
fe
7c
38
ENDCHAR
STARTCHAR a
ENCODING 97
SWIDTH 308 0
DWIDTH 12 0
BBX 12 12 1 0
BITMAP
1f00
7fc0
71c0
e1c0
01c0
3fc0
7fc0
f1c0
e1c0
f3c0
ffc0
7c30
ENDCHAR
STARTCHAR b
ENCODING 98
SWIDTH 334 0
DWIDTH 13 0
BBX 10 16 2 0
BITMAP
c000
c000
c000
e000
ef00
ff80
ff80
e1c0
e1c0
c0c0
c0c0
c0c0
e1c0
f380
ff00
1f00
ENDCHAR
STARTCHAR c
ENCODING 99
SWIDTH 308 0
DWIDTH 12 0
BBX 11 12 1 0
BITMAP
1f80
3fc0
7fc0
f1e0
f0e0
e000
e000
f000
f0e0
71e0
7fc0
1f80
ENDCHAR
STARTCHAR d
ENCODING 100
SWIDTH 334 0
DWIDTH 13 0
BBX 10 16 1 0
BITMAP
00c0
00c0
00c0
00c0
3ec0
7fc0
f3c0
f1c0
e0c0
e0c0
e0c0
e0c0
e1c0
f1c0
7fc0
3e40
ENDCHAR
STARTCHAR e
ENCODING 101
SWIDTH 308 0
DWIDTH 12 0
BBX 11 12 1 0
BITMAP
1f00
3f80
71c0
f0e0
e0e0
ffe0
ffe0
e000
e000
71e0
7fc0
3f00
ENDCHAR
STARTCHAR f
ENCODING 102
SWIDTH 180 0
DWIDTH 7 0
BBX 7 16 0 0
BITMAP
0e
1e
18
18
fe
fe
18
18
18
18
18
18
18
18
18
18
ENDCHAR
STARTCHAR g
ENCODING 103
SWIDTH 334 0
DWIDTH 13 0
BBX 10 17 1 -5
BITMAP
1ec0
7fc0
7fc0
f1c0
e0c0
e0c0
e0c0
e0c0
e0c0
f1c0
7fc0
3fc0
1cc0
e0c0
f380
7f80
3e00
ENDCHAR
STARTCHAR h
ENCODING 104
SWIDTH 334 0
DWIDTH 13 0
BBX 9 16 2 0
BITMAP
c000
c000
c000
c000
ef00
ff80
ff80
e180
c180
c180
c180
c180
c180
c180
c180
c180
ENDCHAR
STARTCHAR i
ENCODING 105
SWIDTH 154 0
DWIDTH 6 0
BBX 2 16 2 0
BITMAP
c0
c0
00
00
c0
c0
c0
c0
c0
c0
c0
c0
c0
c0
c0
c0
ENDCHAR
STARTCHAR j
ENCODING 106
SWIDTH 154 0
DWIDTH 6 0
BBX 4 21 0 -5
BITMAP
30
30
00
00
30
30
30
30
30
30
30
30
30
30
30
30
30
30
f0
f0
e0
ENDCHAR
STARTCHAR k
ENCODING 107
SWIDTH 308 0
DWIDTH 12 0
BBX 10 16 2 0
BITMAP
c000
c000
c000
c000
e380
e780
e700
ee00
fc00
fc00
fe00
ee00
c700
c780
c380
c3c0
ENDCHAR
STARTCHAR l
ENCODING 108
SWIDTH 154 0
DWIDTH 6 0
BBX 2 16 2 0
BITMAP
c0
c0
c0
c0
c0
c0
c0
c0
c0
c0
c0
c0
c0
c0
c0
c0
ENDCHAR
STARTCHAR m
ENCODING 109
SWIDTH 514 0
DWIDTH 20 0
BBX 16 12 2 0
BITMAP
ce3c
fffe
ffff
e1c3
c183
c183
c183
c183
c183
c183
c183
c183
ENDCHAR
STARTCHAR n
ENCODING 110
SWIDTH 334 0
DWIDTH 13 0
BBX 9 12 2 0
BITMAP
cf00
ff80
f380
e180
c180
c180
c180
c180
c180
c180
c180
c180
ENDCHAR
STARTCHAR o
ENCODING 111
SWIDTH 334 0
DWIDTH 13 0
BBX 12 12 1 0
BITMAP
1f00
3fc0
79e0
f0e0
e0e0
c0f0
c0f0
e0e0
e0e0
71e0
3fc0
1f00
ENDCHAR
STARTCHAR p
ENCODING 112
SWIDTH 334 0
DWIDTH 13 0
BBX 11 17 2 -5
BITMAP
cf00
ff80
f3c0
e1c0
e1c0
c1e0
c0e0
c1e0
e1c0
f3c0
ffc0
df80
c200
c000
c000
c000
c000
ENDCHAR
STARTCHAR q
ENCODING 113
SWIDTH 334 0
DWIDTH 13 0
BBX 10 17 1 -5
BITMAP
1ec0
3fc0
7fc0
f1c0
e0c0
c0c0
c0c0
c0c0
e1c0
71c0
7fc0
3fc0
09c0
01c0
00c0
00c0
00c0
ENDCHAR
STARTCHAR r
ENCODING 114
SWIDTH 231 0
DWIDTH 9 0
BBX 6 12 2 0
BITMAP
cc
fc
fc
e0
c0
c0
c0
c0
c0
c0
c0
c0
ENDCHAR
STARTCHAR s
ENCODING 115
SWIDTH 308 0
DWIDTH 12 0
BBX 11 12 1 0
BITMAP
3f00
7fc0
71c0
71e0
7c00
7f80
3fc0
07e0
e0e0
f1e0
7fc0
1f80
ENDCHAR
STARTCHAR t
ENCODING 116
SWIDTH 180 0
DWIDTH 7 0
BBX 7 15 0 0
BITMAP
30
30
30
fe
fe
30
30
30
30
30
30
30
30
3e
1e
ENDCHAR
STARTCHAR u
ENCODING 117
SWIDTH 334 0
DWIDTH 13 0
BBX 9 12 2 0
BITMAP
c180
c180
c180
c180
c180
c180
c180
c180
c180
e380
7f80
7800
ENDCHAR
STARTCHAR v
ENCODING 118
SWIDTH 308 0
DWIDTH 12 0
BBX 12 12 0 0
BITMAP
f070
70f0
70e0
78e0
39c0
39c0
39c0
1b80
1f80
1f80
0f00
0f00
ENDCHAR
STARTCHAR w
ENCODING 119
SWIDTH 437 0
DWIDTH 17 0
BBX 17 12 0 0
BITMAP
e1c380
f3c780
73e700
73e700
736700
336f00
3f6e00
3f7e00
3e3e00
1e3c00
1e3c00
1e3c00
ENDCHAR
STARTCHAR x
ENCODING 120
SWIDTH 308 0
DWIDTH 12 0
BBX 11 12 1 0
BITMAP
f1e0
71c0
3b80
3f80
1f00
0e00
0e00
1f00
3f80
3b80
71c0
f1e0
ENDCHAR
STARTCHAR y
ENCODING 121
SWIDTH 308 0
DWIDTH 12 0
BBX 12 17 0 -5
BITMAP
f070
70f0
70e0
78e0
39c0
39c0
39c0
1f80
1f80
1f80
0f00
0f00
0f00
0e00
3e00
3c00
3800
ENDCHAR
STARTCHAR z
ENCODING 122
SWIDTH 282 0
DWIDTH 11 0
BBX 10 12 0 0
BITMAP
7fc0
7fc0
03c0
0780
0f00
0f00
1e00
3c00
3800
7800
ffc0
ffc0
ENDCHAR
STARTCHAR braceleft
ENCODING 123
SWIDTH 231 0
DWIDTH 9 0
BBX 6 20 1 -4
BITMAP
1c
3c
30
30
30
30
30
30
30
e0
e0
70
30
30
30
30
30
30
3c
1c
ENDCHAR
STARTCHAR bar
ENCODING 124
SWIDTH 154 0
DWIDTH 6 0
BBX 2 20 2 -4
BITMAP
c0
c0
c0
c0
c0
c0
c0
c0
c0
c0
c0
c0
c0
c0
c0
c0
c0
c0
c0
c0
ENDCHAR
STARTCHAR braceright
ENCODING 125
SWIDTH 231 0
DWIDTH 9 0
BBX 6 20 2 -4
BITMAP
e0
f0
70
30
30
30
30
30
30
1c
1c
30
30
30
30
30
30
30
f0
e0
ENDCHAR
STARTCHAR asciitilde
ENCODING 126
SWIDTH 334 0
DWIDTH 13 0
BBX 10 4 1 3
BITMAP
7000
7cc0
cf80
0300
ENDCHAR
STARTCHAR exclamdown
ENCODING 161
SWIDTH 360 0
DWIDTH 14 0
BBX 11 14 1 0
BITMAP
1f80
7fc0
70c0
f060
3860
7860
6060
6060
6060
6060
6060
6060
6060
6060
ENDCHAR
STARTCHAR cent
ENCODING 162
SWIDTH 360 0
DWIDTH 14 0
BBX 12 13 0 0
BITMAP
3e30
7f30
7b30
c9b0
7bb0
3b30
0630
0630
0630
0630
0630
0ff0
0fe0
ENDCHAR
STARTCHAR sterling
ENCODING 163
SWIDTH 385 0
DWIDTH 15 0
BBX 12 14 1 0
BITMAP
1200
7f30
ddb0
f1b0
fbb0
db30
db30
7330
0330
0330
0330
0330
0ff0
0fe0
ENDCHAR
STARTCHAR currency
ENCODING 164
SWIDTH 360 0
DWIDTH 14 0
BBX 11 14 1 0
BITMAP
1f00
3fc0
71c0
c0e0
ce60
db60
f360
ff60
7e60
7060
3060
3060
3060
3060
ENDCHAR
STARTCHAR yen
ENCODING 165
SWIDTH 360 0
DWIDTH 14 0
BBX 11 13 1 0
BITMAP
3f80
7fc0
c060
ce60
db60
f360
ff60
7e60
7060
3060
3060
3060
3060
ENDCHAR
STARTCHAR brokenbar
ENCODING 166
SWIDTH 462 0
DWIDTH 18 0
BBX 15 13 1 0
BITMAP
7f06
fd86
b186
fb86
db06
db06
fb06
0fc6
1ff6
1b3e
131e
1f0e
0e06
ENDCHAR
STARTCHAR section
ENCODING 167
SWIDTH 282 0
DWIDTH 11 0
BBX 9 13 0 0
BITMAP
0700
0d80
0d80
0780
6380
6180
7180
3180
1980
1d80
0d80
0f80
0700
ENDCHAR
STARTCHAR diaeresis
ENCODING 168
SWIDTH 334 0
DWIDTH 13 0
BBX 10 13 1 0
BITMAP
3f00
7f80
e0c0
40c0
38c0
6cc0
64c0
7ec0
3ec0
06c0
07c0
03c0
0180
ENDCHAR
STARTCHAR copyright
ENCODING 169
SWIDTH 385 0
DWIDTH 15 0
BBX 14 14 1 0
BITMAP
0f80
1fc0
38c0
6060
2060
7060
f860
8860
d8f0
fbf8
1e6c
1c6c
187c
1838
ENDCHAR
STARTCHAR ordfeminine
ENCODING 170
SWIDTH 360 0
DWIDTH 14 0
BBX 13 14 1 0
BITMAP
0010
3c38
7e70
dbe0
c9c0
fb60
7260
0660
0660
0660
0660
0660
1fe0
1fc0
ENDCHAR
STARTCHAR guillemotleft
ENCODING 171
SWIDTH 385 0
DWIDTH 15 0
BBX 15 14 0 0
BITMAP
110c
3f8c
6dfc
f8f0
fcf8
cd98
6f98
7b18
0318
0318
0318
0318
07f8
07f0
ENDCHAR
STARTCHAR notsign
ENCODING 172
SWIDTH 488 0
DWIDTH 19 0
BBX 16 13 1 0
BITMAP
3f83
7183
f0c3
38c3
38c3
60c3
60c3
60c3
79e3
7dfb
45df
6dc7
3983
ENDCHAR
STARTCHAR hyphen
ENCODING 173
SWIDTH 488 0
DWIDTH 19 0
BBX 16 19 1 -6
BITMAP
3f83
7183
f0c3
38c3
38c3
60c3
60c3
60c3
78c3
7cc3
44c3
6dff
39fe
0000
01e7
0127
0136
01fe
00fc
ENDCHAR
STARTCHAR registered
ENCODING 174
SWIDTH 411 0
DWIDTH 16 0
BBX 13 19 1 -6
BITMAP
1fe0
3c70
7838
1e18
1c18
1818
3818
3818
7818
f818
9818
9818
f118
1f98
3f98
63f8
67f8
3e78
3c38
ENDCHAR
STARTCHAR macron
ENCODING 175
SWIDTH 411 0
DWIDTH 16 0
BBX 13 19 1 -6
BITMAP
1fe0
3c70
7838
1e18
1c18
1818
3818
3818
7818
f818
9818
9818
f218
0218
1618
7e58
66f8
6ff8
3938
ENDCHAR
STARTCHAR degree
ENCODING 176
SWIDTH 308 0
DWIDTH 12 0
BBX 12 20 -1 -7
BITMAP
1ff0
38f0
3f00
0fc0
00e0
1e60
3360
3360
1fe0
0de0
00e0
00e0
00e0
0000
0de0
0d20
3da0
79e0
5f60
77c0
ENDCHAR
STARTCHAR plusminus
ENCODING 177
SWIDTH 462 0
DWIDTH 18 0
BBX 16 14 0 0
BITMAP
1200
3f8e
6ddf
f9db
ffb3
cf33
6f63
7b63
03c3
03c3
03c3
0383
0383
0303
ENDCHAR
STARTCHAR twosuperior
ENCODING 178
SWIDTH 488 0
DWIDTH 19 0
BBX 16 13 1 0
BITMAP
3f83
7fc3
c063
ce63
db63
d963
df63
ef63
66f3
6dff
39ef
39e7
30c3
ENDCHAR
STARTCHAR threesuperior
ENCODING 179
SWIDTH 488 0
DWIDTH 19 0
BBX 18 13 1 0
BITMAP
3f8300
718300
f0c300
38c300
38c300
60c300
60c300
60cf80
78dfc0
7cf3c0
44e340
6ce3c0
38c180
ENDCHAR
STARTCHAR acute
ENCODING 180
SWIDTH 360 0
DWIDTH 14 0
BBX 11 14 1 0
BITMAP
1f00
3fc0
71c0
6060
ce60
db60
d960
df60
6f60
6660
2c60
3c60
3860
3060
ENDCHAR
STARTCHAR mu
ENCODING 181
SWIDTH 360 0
DWIDTH 14 0
BBX 11 13 1 0
BITMAP
3f80
7fc0
c060
ce60
db60
d960
df60
ef60
6660
6c60
3c60
3860
3060
ENDCHAR
STARTCHAR paragraph
ENCODING 182
SWIDTH 360 0
DWIDTH 14 0
BBX 11 14 1 0
BITMAP
1f80
7fc0
70c0
f060
3860
3860
6060
6060
6060
7860
7c60
4460
6460
3860
ENDCHAR
STARTCHAR periodcentered
ENCODING 183
SWIDTH 411 0
DWIDTH 16 0
BBX 13 13 1 0
BITMAP
f0f0
d9f8
9998
f998
7b18
1b18
1b18
1e18
1e18
1c18
1c18
1c18
1818
ENDCHAR
STARTCHAR cedilla
ENCODING 184
SWIDTH 308 0
DWIDTH 12 0
BBX 11 13 1 0
BITMAP
7fc0
e3e0
f800
ff00
0380
3180
3180
3180
3180
3180
3180
ff80
ff00
ENDCHAR
STARTCHAR onesuperior
ENCODING 185
SWIDTH 385 0
DWIDTH 15 0
BBX 14 13 1 0
BITMAP
f060
8860
8860
f860
7860
1860
1860
18f0
1bf8
1e6c
1c6c
1c7c
1838
ENDCHAR
STARTCHAR masculine
ENCODING 186
SWIDTH 385 0
DWIDTH 15 0
BBX 13 13 0 0
BITMAP
7018
d818
d818
7818
3818
1818
1818
1818
1818
1818
1818
3ff8
3ff0
ENDCHAR
STARTCHAR guillemotright
ENCODING 187
SWIDTH 385 0
DWIDTH 15 0
BBX 13 18 0 0
BITMAP
0018
0018
0018
0018
0018
7018
d818
d818
7818
3818
1818
1818
1818
1818
1818
1818
3ff8
3ff0
ENDCHAR
STARTCHAR onequarter
ENCODING 188
SWIDTH 360 0
DWIDTH 14 0
BBX 11 13 2 0
BITMAP
7860
d860
d860
f860
f060
c460
ce60
df60
fbe0
f1e0
e0e0
c0e0
c060
ENDCHAR
STARTCHAR onehalf
ENCODING 189
SWIDTH 360 0
DWIDTH 14 0
BBX 11 18 2 0
BITMAP
0060
0060
0060
0060
0060
7860
d860
d860
f860
f060
c460
ce60
df60
fbe0
f1e0
e0e0
c0e0
c060
ENDCHAR
STARTCHAR threequarters
ENCODING 190
SWIDTH 411 0
DWIDTH 16 0
BBX 14 13 0 0
BITMAP
704c
d8cc
c8cc
79cc
3bec
1b6c
1f3c
1f3c
1e1c
1e1c
1c0c
1c0c
180c
ENDCHAR
STARTCHAR questiondown
ENCODING 191
SWIDTH 411 0
DWIDTH 16 0
BBX 14 18 0 0
BITMAP
000c
000c
000c
000c
000c
704c
d8cc
c8cc
79cc
3bec
1b6c
1f3c
1f3c
1e1c
1e1c
1c0c
1c0c
180c
ENDCHAR
STARTCHAR Agrave
ENCODING 192
SWIDTH 411 0
DWIDTH 16 0
BBX 13 13 1 0
BITMAP
1fe0
3870
7838
1e18
1c18
3818
3818
3818
7818
f818
9818
9018
7018
ENDCHAR
STARTCHAR Aacute
ENCODING 193
SWIDTH 385 0
DWIDTH 15 0
BBX 12 13 1 0
BITMAP
7030
d830
c830
f830
7830
1830
1830
7e30
7fb0
d9f0
d8f0
d870
7030
ENDCHAR
STARTCHAR Acircumflex
ENCODING 194
SWIDTH 360 0
DWIDTH 14 0
BBX 10 13 2 0
BITMAP
78c0
ccc0
ccc0
f8c0
d0c0
e0c0
78c0
78c0
c0c0
c0c0
c0c0
ffc0
ff80
ENDCHAR
STARTCHAR Atilde
ENCODING 195
SWIDTH 308 0
DWIDTH 12 0
BBX 11 14 1 0
BITMAP
0800
3fe0
61e0
fc00
ff00
0180
0180
0080
0080
0780
0780
0c80
0780
0700
ENDCHAR
STARTCHAR Adiaeresis
ENCODING 196
SWIDTH 360 0
DWIDTH 14 0
BBX 11 21 1 -7
BITMAP
1f80
7fc0
70c0
f060
3860
3860
6060
6060
6060
7860
7c60
4460
6c60
3c60
0060
0060
0060
0060
0060
0060
0060
ENDCHAR
STARTCHAR Aring
ENCODING 197
SWIDTH 360 0
DWIDTH 14 0
BBX 11 14 1 0
BITMAP
1f00
7fc0
71c0
40e0
0060
3e60
7760
6360
61e0
79e0
7ce0
64e0
6ce0
3860
ENDCHAR
STARTCHAR AE
ENCODING 198
SWIDTH 411 0
DWIDTH 16 0
BBX 13 20 1 -7
BITMAP
1fe0
3870
7838
1e18
1c18
3818
3818
3818
7818
f818
9818
9818
f018
0018
0018
0018
0018
0018
0018
0018
ENDCHAR
STARTCHAR Ccedilla
ENCODING 199
SWIDTH 308 0
DWIDTH 12 0
BBX 10 14 0 0
BITMAP
1f00
7f80
f180
c0c0
40c0
00c0
00c0
00c0
00c0
03c0
03c0
0640
06c0
0380
ENDCHAR
STARTCHAR Egrave
ENCODING 200
SWIDTH 360 0
DWIDTH 14 0
BBX 13 14 1 0
BITMAP
0630
3fb0
71f0
c0e0
cfe0
db60
f360
ff60
7e60
7060
3060
3060
3060
3060
ENDCHAR
STARTCHAR Eacute
ENCODING 201
SWIDTH 385 0
DWIDTH 15 0
BBX 15 13 1 0
BITMAP
f030
9830
9830
f836
7bb6
1eb6
1fbc
1bf8
1830
1830
1830
7ff0
7fe0
ENDCHAR
STARTCHAR Ecircumflex
ENCODING 202
SWIDTH 360 0
DWIDTH 14 0
BBX 11 15 1 0
BITMAP
0040
1e60
7fc0
e180
c1c0
01c0
3ec0
6ec0
63c0
61c0
71c0
79c0
4cc0
68c0
38c0
ENDCHAR
STARTCHAR Ediaeresis
ENCODING 203
SWIDTH 385 0
DWIDTH 15 0
BBX 13 13 0 0
BITMAP
70f8
d8c8
d8c8
78f8
78f0
19d8
1b18
1e18
1e18
1c18
1818
1818
1818
ENDCHAR
STARTCHAR Igrave
ENCODING 204
SWIDTH 437 0
DWIDTH 17 0
BBX 17 15 0 0
BITMAP
003f00
003380
703380
d87f00
d8c600
78c600
39e600
1bf600
1b3600
1f3e00
1e1e00
1e1e00
1c0e00
1c0e00
180600
ENDCHAR
STARTCHAR Iacute
ENCODING 205
SWIDTH 360 0
DWIDTH 14 0
BBX 11 14 1 0
BITMAP
1f00
7fc0
f1c0
40e0
0060
3860
6c60
6460
7c60
7860
6060
6060
7fe0
3fc0
ENDCHAR
STARTCHAR Icircumflex
ENCODING 206
SWIDTH 360 0
DWIDTH 14 0
BBX 13 14 1 0
BITMAP
3f10
7ff8
40f0
7fe0
3f60
0060
3860
6c60
6c60
7c60
7860
6060
7fe0
3fc0
ENDCHAR
STARTCHAR Idiaeresis
ENCODING 207
SWIDTH 334 0
DWIDTH 13 0
BBX 10 13 1 0
BITMAP
78c0
6cc0
ecc0
fdc0
79c0
7fc0
3ec0
00c0
00c0
00c0
00c0
0380
0300
ENDCHAR
STARTCHAR ETH
ENCODING 208
SWIDTH 257 0
DWIDTH 10 0
BBX 9 13 1 0
BITMAP
7180
d980
cb80
ff00
3c00
0000
0000
0000
7180
d980
cb80
ff00
3c00
ENDCHAR
STARTCHAR Ntilde
ENCODING 209
SWIDTH 0 0
DWIDTH 0 0
BBX 11 5 -8 16
BITMAP
7040
d8e0
98c0
fb80
7f00
ENDCHAR
STARTCHAR Ograve
ENCODING 210
SWIDTH 282 0
DWIDTH 11 0
BBX 9 14 0 0
BITMAP
1e00
7f00
6380
e180
2180
0180
0180
0180
0180
0180
0180
0180
0180
0180
ENDCHAR
STARTCHAR Oacute
ENCODING 211
SWIDTH 282 0
DWIDTH 11 0
BBX 16 21 -7 0
BITMAP
7000
7800
cc00
7800
7000
0000
0000
003c
00fe
00c7
01c3
0043
0003
0003
0003
0003
0003
0003
0003
0003
0003
ENDCHAR
STARTCHAR Ocircumflex
ENCODING 212
SWIDTH 0 0
DWIDTH 0 0
BBX 10 6 -12 15
BITMAP
1e00
3f00
6080
ffc0
83c0
0040
ENDCHAR
STARTCHAR Otilde
ENCODING 213
SWIDTH 51 0
DWIDTH 2 0
BBX 10 8 -11 15
BITMAP
00c0
00c0
1ec0
77c0
e1c0
ffc0
03c0
0040
ENDCHAR
STARTCHAR Odiaeresis
ENCODING 214
SWIDTH 0 0
DWIDTH 0 0
BBX 11 8 -13 15
BITMAP
00c0
01e0
1f60
3be0
60c0
ffc0
03e0
0020
ENDCHAR
STARTCHAR multiply
ENCODING 215
SWIDTH 51 0
DWIDTH 2 0
BBX 10 8 -11 15
BITMAP
06c0
06c0
3ec0
77c0
e1c0
ffc0
03c0
0040
ENDCHAR
STARTCHAR Ooblique
ENCODING 216
SWIDTH 0 0
DWIDTH 0 0
BBX 5 8 -7 -10
BITMAP
70
d8
d8
f8
78
18
18
18
ENDCHAR
STARTCHAR Ugrave
ENCODING 217
SWIDTH 0 0
DWIDTH 0 0
BBX 8 8 -10 -10
BITMAP
f3
9b
9b
fb
7b
1b
1f
0e
ENDCHAR
STARTCHAR Uacute
ENCODING 218
SWIDTH 0 0
DWIDTH 0 0
BBX 2 3 -4 -5
BITMAP
c0
c0
c0
ENDCHAR
STARTCHAR Ucircumflex
ENCODING 219
SWIDTH 0 0
DWIDTH 0 0
BBX 2 3 -4 -10
BITMAP
c0
c0
c0
ENDCHAR
STARTCHAR Udiaeresis
ENCODING 220
SWIDTH 0 0
DWIDTH 0 0
BBX 1 1 0 0
BITMAP
00
ENDCHAR
STARTCHAR Yacute
ENCODING 221
SWIDTH 0 0
DWIDTH 0 0
BBX 1 1 0 0
BITMAP
00
ENDCHAR
STARTCHAR THORN
ENCODING 222
SWIDTH 0 0
DWIDTH 0 0
BBX 1 1 0 0
BITMAP
00
ENDCHAR
STARTCHAR ssharp
ENCODING 223
SWIDTH 411 0
DWIDTH 16 0
BBX 13 19 2 -1
BITMAP
0600
0600
ffc0
ffe0
e7f0
e670
e670
e670
e7f0
ffe0
ffe0
e7f0
e678
e678
e670
e7f0
ffe0
ffc0
0600
ENDCHAR
STARTCHAR agrave
ENCODING 224
SWIDTH 180 0
DWIDTH 7 0
BBX 5 13 2 0
BITMAP
c0
c0
c0
c0
c0
c0
c0
c0
f0
f8
98
d8
70
ENDCHAR
STARTCHAR aacute
ENCODING 225
SWIDTH 334 0
DWIDTH 13 0
BBX 11 13 2 0
BITMAP
c300
c300
c300
c300
c300
c300
c300
c300
f3c0
fbe0
9a20
db60
71c0
ENDCHAR
STARTCHAR acircumflex
ENCODING 226
SWIDTH 231 0
DWIDTH 9 0
BBX 10 24 -1 0
BITMAP
1c00
7fc0
f1c0
3c00
0e00
0600
0600
0600
0600
0600
0600
0600
0600
0600
0600
0600
0600
0600
0600
0780
0780
04c0
0780
0380
ENDCHAR
STARTCHAR atilde
ENCODING 227
SWIDTH 231 0
DWIDTH 9 0
BBX 10 24 -1 0
BITMAP
3800
6e00
e600
f600
f600
7600
0600
0600
0600
0600
0600
0600
0600
0600
0600
0600
0600
0600
0600
0780
0780
04c0
0780
0380
ENDCHAR
STARTCHAR adiaeresis
ENCODING 228
SWIDTH 257 0
DWIDTH 10 0
BBX 11 24 -1 0
BITMAP
4700
ef00
6f00
6f00
2f00
3b00
3b00
3300
0300
0300
0300
0300
0300
0300
0300
0300
0300
0300
0300
03c0
03e0
0260
03e0
01c0
ENDCHAR
STARTCHAR aring
ENCODING 229
SWIDTH 282 0
DWIDTH 11 0
BBX 9 21 0 -7
BITMAP
1e00
7f00
6380
e180
2180
0180
0180
0180
0180
0180
0180
0180
0180
0180
0180
0180
0180
0180
0180
0180
0180
ENDCHAR
STARTCHAR ae
ENCODING 230
SWIDTH 385 0
DWIDTH 15 0
BBX 9 18 4 -5
BITMAP
7f00
ff80
c180
f980
f980
c980
7980
1180
0180
0180
0180
0180
0180
0180
0180
0380
0f00
0400
ENDCHAR
STARTCHAR ccedilla
ENCODING 231
SWIDTH 0 0
DWIDTH 0 0
BBX 10 8 -11 15
BITMAP
00c0
3fc0
ff80
c100
ff80
fec0
6780
2100
ENDCHAR
STARTCHAR egrave
ENCODING 232
SWIDTH 0 0
DWIDTH 0 0
BBX 2 5 -4 24
BITMAP
c0
c0
c0
c0
c0
ENDCHAR
STARTCHAR eacute
ENCODING 233
SWIDTH 0 0
DWIDTH 0 0
BBX 8 6 -7 23
BITMAP
20
f3
93
f6
3e
78
ENDCHAR
STARTCHAR ecircumflex
ENCODING 234
SWIDTH 0 0
DWIDTH 0 0
BBX 10 5 -10 23
BITMAP
7ec0
dec0
f3c0
d780
7700
ENDCHAR
STARTCHAR ediaeresis
ENCODING 235
SWIDTH 0 0
DWIDTH 0 0
BBX 6 5 -6 23
BITMAP
30
fc
fc
30
30
ENDCHAR
STARTCHAR igrave
ENCODING 236
SWIDTH 0 0
DWIDTH 0 0
BBX 7 7 -8 22
BITMAP
06
06
7c
e0
f0
d0
70
ENDCHAR
STARTCHAR iacute
ENCODING 237
SWIDTH 0 0
DWIDTH 0 0
BBX 5 5 -7 16
BITMAP
70
d8
88
d8
70
ENDCHAR
STARTCHAR icircumflex
ENCODING 238
SWIDTH 0 0
DWIDTH 0 0
BBX 5 5 -7 19
BITMAP
70
d8
88
d8
70
ENDCHAR
STARTCHAR idiaeresis
ENCODING 239
SWIDTH 334 0
DWIDTH 13 0
BBX 13 13 0 0
BITMAP
0f80
3fe0
6030
4790
cfd8
dfd8
dfd8
dfd8
cfd8
4710
6030
3fe0
0f80
ENDCHAR
STARTCHAR eth
ENCODING 240
SWIDTH 360 0
DWIDTH 14 0
BBX 11 10 1 0
BITMAP
1f00
3f80
71c0
e0e0
c060
c060
c060
60c0
7fc0
1f00
ENDCHAR
STARTCHAR ntilde
ENCODING 241
SWIDTH 360 0
DWIDTH 14 0
BBX 12 11 1 -1
BITMAP
0f80
3fc0
71e0
e660
cf70
d930
ff70
7f70
7e60
0cc0
00c0
ENDCHAR
STARTCHAR ograve
ENCODING 242
SWIDTH 437 0
DWIDTH 17 0
BBX 14 14 1 0
BITMAP
4000
e000
6000
6000
67b8
6ffc
6ecc
7f0c
798c
6d8c
670c
700c
3ffc
1ff8
ENDCHAR
STARTCHAR oacute
ENCODING 243
SWIDTH 411 0
DWIDTH 16 0
BBX 13 10 2 0
BITMAP
3ce0
7ff0
6738
c338
c318
f318
fb18
db38
fb38
7330
ENDCHAR
STARTCHAR ocircumflex
ENCODING 244
SWIDTH 411 0
DWIDTH 16 0
BBX 15 15 1 0
BITMAP
0006
0006
0006
000e
000c
1ffc
3ff8
7000
e780
cf80
cc80
ef80
77e0
7ff8
0e08
ENDCHAR
STARTCHAR otilde
ENCODING 245
SWIDTH 437 0
DWIDTH 17 0
BBX 15 15 1 0
BITMAP
0006
0006
0786
0f8e
0c9c
1ff8
7ff0
7000
e780
cf80
cc80
ef80
77e0
7ff8
0e08
ENDCHAR
STARTCHAR odiaeresis
ENCODING 246
SWIDTH 308 0
DWIDTH 12 0
BBX 11 15 0 0
BITMAP
4000
6000
6000
7000
3000
3f80
3fc0
30e0
0060
1c60
3e60
3660
3ec0
3fc0
0f00
ENDCHAR
STARTCHAR division
ENCODING 247
SWIDTH 437 0
DWIDTH 17 0
BBX 15 15 1 0
BITMAP
0004
000e
000e
000c
000c
000c
3fec
7fec
e67e
c63c
f83c
fc6c
ec78
7c78
3c60
ENDCHAR
STARTCHAR oslash
ENCODING 248
SWIDTH 411 0
DWIDTH 16 0
BBX 14 14 1 0
BITMAP
000c
000c
000c
000c
1ffc
7ff8
7ff0
e0f0
c0f8
dc98
fff8
7ff8
7bf8
39f0
ENDCHAR
STARTCHAR ugrave
ENCODING 249
SWIDTH 360 0
DWIDTH 14 0
BBX 13 14 1 0
BITMAP
0038
0018
0018
0018
0cd8
3ff8
7ff0
e180
c1c0
dec0
dfe0
f360
7f70
3c20
ENDCHAR
STARTCHAR uacute
ENCODING 250
SWIDTH 1002 0
DWIDTH 39 0
BBX 39 2 0 5
BITMAP
fffffffffe
fffffffffe
ENDCHAR
STARTCHAR ucircumflex
ENCODING 251
SWIDTH 488 0
DWIDTH 19 0
BBX 19 2 0 5
BITMAP
ffffe0
ffffe0
ENDCHAR
STARTCHAR udiaeresis
ENCODING 252
SWIDTH 0 0
DWIDTH 0 0
BBX 5 9 -7 -16
BITMAP
20
f8
98
98
f8
78
18
18
18
ENDCHAR
STARTCHAR yacute
ENCODING 253
SWIDTH 0 0
DWIDTH 0 0
BBX 9 9 -11 -16
BITMAP
1000
7980
cd80
cd80
7d80
3d80
1d80
0f80
0700
ENDCHAR
STARTCHAR thorn
ENCODING 254
SWIDTH 411 0
DWIDTH 16 0
BBX 15 15 1 0
BITMAP
07c0
0ff0
3008
47c4
4662
8662
86c2
8782
86c2
8642
4622
4004
2008
1398
0fe0
ENDCHAR
STARTCHAR ydiaeresis
ENCODING 255
SWIDTH 0 0
DWIDTH 0 0
BBX 1 1 0 0
BITMAP
00
ENDCHAR
ENDFONT
